# xmcd CD database file
#
# Track frame offsets:
#	150
#	24130
#	47728
#	73352
#	91885
#	112389
#	126704
#	150545
#	162220
#	186002
#	210254
#	231841
#
# Disc length: 3277 seconds
#
# Revision: 0
# Processed by: cddbd v1.5.2PL0 Copyright (c) Steve Scherf et al.
# Submitted via: CDex 1.51
#
DISCID=a30ccb0c
DTITLE=The Joe Scott Jazz Trio - Celebrating Life With Music
DYEAR=2009
DGENRE=Jazz
TTITLE0=Cole Porter Medley
TTITLE1=How Deep is the Ocean
TTITLE2=At Last - The Very Thought Of You
TTITLE3=Gershwin Medley
TTITLE4=Moanin'
TTITLE5=I Love You Porgy
TTITLE6=I Thought About You
TTITLE7=This Is All I Ask
TTITLE8=On Green Dolphin Street
TTITLE9=Antonio Jobim Medley
TTITLE10=My Fair Lady Medley
TTITLE11=April In Paris
EXTD=YEAR: 2009
EXTT0=
EXTT1=
EXTT2=
EXTT3=
EXTT4=
EXTT5=
EXTT6=
EXTT7=
EXTT8=
EXTT9=
EXTT10=
EXTT11=
PLAYORDER=
